<?xml version="1.0" encoding="UTF-8" standalone="no"?>
<!DOCTYPE svg PUBLIC "-//W3C//DTD SVG 1.1//EN" "http://www.w3.org/Graphics/SVG/1.1/DTD/svg11.dtd">
<!-- Created with Vectornator (http://vectornator.io/) -->
<svg height="100%" stroke-miterlimit="10" style="fill-rule:nonzero;clip-rule:evenodd;stroke-linecap:round;stroke-linejoin:round;" version="1.1" viewBox="0 0 256 256" width="100%" xml:space="preserve" xmlns="http://www.w3.org/2000/svg" xmlns:xlink="http://www.w3.org/1999/xlink">
<defs>
<radialGradient cx="127.786" cy="85.0552" gradientTransform="matrix(1 0 0 1 0 0)" gradientUnits="userSpaceOnUse" id="RadialGradient" r="170.299">
<stop offset="0" stop-color="#ff0000"/>
<stop offset="1" stop-color="#d11818"/>
</radialGradient>
</defs>
<g id="Layer-2">
<path d="M0 128C0 57.3076 57.3076 0 128 0C198.692 0 256 57.3076 256 128C256 198.692 198.692 256 128 256C57.3076 256 0 198.692 0 128Z" fill="url(#RadialGradient)" fill-rule="nonzero" opacity="1" stroke="none"/>
<g opacity="1">
<path d="M216.684 108.319L227.227 98.8415C230.127 96.2351 230.367 91.7304 227.76 88.8309L196.958 54.5647C196.721 54.3011 196.484 54.0375 196.159 53.8529L169.385 38.2058C168.007 37.3795 166.321 37.6244 165.179 38.6511L164.3 39.4409C163.158 40.4677 162.823 42.0394 163.419 43.4096L175.257 72.4834C175.406 72.826 175.634 73.2564 175.871 73.52L177.451 75.2772L108.04 137.672C106.546 139.014 106.43 141.183 107.773 142.677L121.2 157.614C122.542 159.107 124.711 159.223 126.205 157.88L195.616 95.4855L206.673 107.786C209.28 110.686 213.785 110.925 216.684 108.319Z" fill="#ffffff" fill-rule="nonzero" opacity="0" stroke="none"/>
<path d="M153.575 48.0438C154.575 48.0419 155.4 48.8584 155.405 49.8558L155.433 55.3161C155.438 56.3198 154.621 57.1383 153.621 57.1465L142.148 60.361L135.371 57.239L75.4685 57.5457L75.4224 48.443L135.231 48.1368L142.019 44.946L153.575 48.0438ZM84.0878 68.569C66.7567 68.6536 50.7876 60.9541 50.7675 57.6054L50.7288 49.358C50.715 46.0029 67.0161 38.2346 83.9368 38.1457C91.6917 38.1032 99.4029 44.38 104.238 44.3555C107.038 44.3445 111.362 38.0099 113.382 37.9997C118.896 37.9686 117.751 42.6205 117.751 42.6205L117.861 63.6444C117.861 63.6444 118.409 68.3951 113.536 68.4198C111.56 68.4298 106.891 62.1439 104.329 62.1506C100.554 62.1697 94.4119 68.5135 84.0878 68.569Z" fill="#ffffff" fill-rule="nonzero" opacity="1" stroke="none"/>
<path d="M52.5882 166.579L49.9082 169.911L79.5057 176.227L81.6945 187.33L75.1634 196.574L45.5652 190.263L46.6521 194.399C47.5176 197.68 48.8744 200.765 50.6928 203.569C60.1747 218.193 79.7852 222.376 94.4092 212.895C97.6779 210.775 100.485 208.104 102.772 204.939C102.772 204.939 125.857 211.274 149.347 209.647C172.837 208.021 196.73 198.433 196.73 198.433C200.02 198.283 203.053 196.859 205.273 194.425C207.494 191.991 208.632 188.842 208.481 185.551C208.326 182.156 206.803 179.139 204.471 177.011C202.138 174.883 198.994 173.644 195.6 173.799C195.6 173.799 174.922 183.355 149.606 183.995C127.626 184.551 108.125 179.852 108.125 179.852C107.328 176.033 105.854 172.447 103.734 169.178C94.2524 154.554 74.642 150.371 60.018 159.853C57.2134 161.671 54.7122 163.934 52.5882 166.579Z" fill="#ffffff" fill-rule="nonzero" opacity="1" stroke="none"/>
<g opacity="1">
<path d="M164.385 55.6565C181.357 55.6565 195.113 69.4125 195.113 86.3848" fill="none" opacity="1" stroke="#ffffff" stroke-linecap="butt" stroke-linejoin="miter" stroke-width="7"/>
<path d="M113.531 152.963L121.853 144.481L128.575 151.202L173.707 105.91C177.579 102.038 179.789 96.9758 179.789 91.5062C179.789 86.0365 177.579 80.969 173.707 77.1023C169.841 73.2305 164.773 71.0206 159.303 71.0206C153.834 71.0206 148.611 73.2305 144.739 77.1023L99.6072 122.235L106.329 128.956L98.1668 137.279L113.531 152.963ZM159.303 101.749C153.644 101.749 149.061 97.1653 149.061 91.5062C149.061 85.847 153.644 81.2634 159.303 81.2634C164.962 81.2634 169.546 85.847 169.546 91.5062C169.546 97.1653 164.962 101.749 159.303 101.749Z" fill="#ffffff" fill-rule="nonzero" opacity="1" stroke="none"/>
<path d="M164.335 37.7421C191.854 37.7421 214.159 59.6223 214.159 86.6181" fill="none" opacity="1" stroke="#ffffff" stroke-linecap="butt" stroke-linejoin="miter" stroke-width="7"/>
</g>
</g>
</g>
</svg>
