<svg stroke-miterlimit="10" viewBox="0 0 256 256" xmlns="http://www.w3.org/2000/svg" fill-rule="nonzero" stroke-linejoin="round" stroke-linecap="round" clip-rule="evenodd">
<!-- Created with Vectornator (http://vectornator.io/) - by https://github.com/filmgarage -->
<defs><radialGradient cx="127.79" cy="85.06" gradientUnits="userSpaceOnUse" id="0" r="170.3"><stop stop-color="#f00"/><stop offset="1" stop-color="#d11818"/></radialGradient></defs><path d="m0 128c0-70.69 57.31-128 128-128 70.69 0 128 57.31 128 128 0 70.69-57.31 128-128 128-70.69 0-128-57.31-128-128" fill="url(#0)"/><path d="m164.34 34.24v7c25.664 0 46.32 20.307 46.32 45.37h7c0-28.924-23.948-52.37-53.32-52.37m-50.953 3.758c-2.02.001-6.345 6.344-9.145 6.355-4.835.025-12.546-6.251-20.301-6.209-16.921.089-33.22 7.856-33.21 11.211l.039 8.248c.02 3.349 15.989 11.05 33.32 10.963 10.324-.055 16.465-6.399 20.24-6.418 2.562-.007 7.231 6.28 9.207 6.27 4.873-.025 4.326-4.775 4.326-4.775l-.033-6.316 17.543-.09 6.777 3.123 11.473-3.215c1-.008 1.817-.826 1.813-1.83l-.029-5.461c-.005-.997-.83-1.814-1.83-1.813l-11.555-3.098-6.789 3.191-17.449.09-.029-5.605c0 0 1.145-4.652-4.369-4.621m51 14.156v7c15.08 0 27.23 12.147 27.23 27.23h7c0-18.863-15.365-34.23-34.23-34.23m-5.082 18.865c-5.469 0-10.692 2.208-14.564 6.08l-45.13 45.13 6.721 6.721-8.162 8.324 15.365 15.684 8.322-8.482 6.721 6.721 45.13-45.29c3.872-3.872 6.082-8.935 6.082-14.404 0-5.47-2.21-10.538-6.082-14.404-3.866-3.872-8.934-6.08-14.404-6.08m0 10.242c5.659 0 10.244 4.583 10.244 10.242 0 5.659-4.585 10.242-10.244 10.242-5.659 0-10.242-4.583-10.242-10.242 0-5.659 4.583-10.242 10.242-10.242m-81.53 73.52c-6.089-.118-12.276 1.517-17.76 5.072-2.805 1.818-5.306 4.08-7.43 6.725l-2.68 3.332 29.598 6.316 2.189 11.1-6.531 9.244-29.6-6.311 1.088 4.135c.865 3.281 2.223 6.366 4.04 9.17 9.482 14.624 29.09 18.807 43.717 9.326 3.269-2.12 6.074-4.79 8.361-7.955 0 0 23.09 6.334 46.576 4.707 23.49-1.626 47.38-11.213 47.38-11.213 3.29-.15 6.323-1.574 8.543-4.01 2.221-2.434 3.358-5.584 3.207-8.875-.155-3.395-1.678-6.411-4.01-8.539-2.333-2.128-5.477-3.368-8.871-3.213 0 0-20.678 9.555-45.994 10.195-21.98.556-41.48-4.143-41.48-4.143-.797-3.819-2.271-7.405-4.391-10.674-5.926-9.14-15.808-14.201-25.957-14.396" fill="#fff"/></svg>
